<svg xmlns="http://www.w3.org/2000/svg" width="64" height="64" fill="none" viewBox="0 0 64 64">
    <path fill="#000" d="M45 35c.2 0 .4.1.5.3l2.6 7.3v4.9c0 .3-.2.5-.5.5h-31c-.3 0-.5-.2-.5-.5v-4.7-.2l3.5-7.3c.1-.2.3-.3.5-.3H45zm0-1H20c-.6 0-1.1.3-1.4.9l-3.5 7.3c-.1.2-.1.4-.1.6v4.7c0 .8.7 1.5 1.5 1.5h31c.8 0 1.5-.7 1.5-1.5v-4.7c0-.2 0-.3-.1-.5L46.3 35c-.1-.6-.6-1-1.3-1z"/>
    <path stroke="#000" stroke-miterlimit="10" stroke-width="1.109" d="M15.9 42.5h32.9"/>
    <path fill="#000" d="M36.8 46.3a.8.8 0 1 0 0-1.6.8.8 0 0 0 0 1.6zM40.3 46.3a.8.8 0 1 0 0-1.6.8.8 0 0 0 0 1.6zM43.7 46.3a.8.8 0 1 0 0-1.6.8.8 0 0 0 0 1.6zM38.8 34.9l5.4-12.3s1.3-1.4 1.8-1.2c.1 0-.2 1-.2 1l-4.7 12.5h-2.3zM25.5 34.9l-5.4-12.3s-1.4-1.5-1.8-1.2c-.3.3.4 1.6.4 1.6l4.6 11.8h2.2v.1zM34.1 34.8l1.9-13s.8-1.4 1.3-1.4c.2 0 .1 1.1.1 1.1l-1.3 13.3h-2zM30.5 34.8l-1.9-13s-.8-1.4-1.3-1.4c-.2 0-.1 1.2-.1 1.2l1.3 13.2h2z"/>
</svg>
