<svg width="40" height="40" viewBox="0 0 40 40" fill="none" xmlns="http://www.w3.org/2000/svg" svg-inline="" role="presentation" focusable="false" tabindex="-1" class="Footer__communityListIcon__1zeIE"><circle cx="20" cy="20" r="20" fill="#818181"></circle><path d="M30.653 14.986a7.57 7.57 0 01-1.45.478 4.483 4.483 0 001.195-1.853.236.236 0 00-.353-.267 8.267 8.267 0 01-2.215.898c-.04.019-.098.019-.137.019a.632.632 0 01-.392-.153 4.599 4.599 0 00-3-1.108c-.47 0-.96.076-1.43.21a4.348 4.348 0 00-2.96 3.075 4.16 4.16 0 00-.099 1.624c0 .057-.02.096-.04.115-.038.038-.077.057-.117.057h-.02a11.96 11.96 0 01-8.155-4.24c-.098-.134-.313-.115-.392.038a4.384 4.384 0 00-.607 2.215 4.29 4.29 0 001.352 3.133 4.25 4.25 0 01-1.039-.382c-.157-.076-.353.019-.353.191a4.398 4.398 0 002.647 4.069h-.098c-.255 0-.51-.02-.765-.077a.237.237 0 00-.274.306c.51 1.585 1.921 2.731 3.587 2.999a8.578 8.578 0 01-4.665 1.375h-.53a.335.335 0 00-.333.248c-.04.153.04.306.177.382A12.587 12.587 0 0016.44 30c1.921 0 3.705-.363 5.332-1.108a11.583 11.583 0 003.902-2.846 12.678 12.678 0 002.391-3.897c.53-1.375.804-2.865.804-4.26v-.075c0-.23.098-.44.294-.593a9.484 9.484 0 001.804-1.929c.117-.172-.098-.401-.314-.306z" fill="#fff"></path></svg>