<svg width="40" height="40" viewBox="0 0 40 40" fill="none" xmlns="http://www.w3.org/2000/svg" svg-inline="" role="presentation" focusable="false" tabindex="-1" class="Footer__communityListIcon__1zeIE"><circle cx="20" cy="20" r="20" fill="#818181"></circle><path d="M24.386 8.8h-8.972A6.616 6.616 0 008.8 15.414v8.972A6.616 6.616 0 0015.414 31h8.972A6.616 6.616 0 0031 24.386v-8.972A6.616 6.616 0 0024.386 8.8zm4.381 15.607a4.381 4.381 0 01-4.381 4.381h-8.972a4.381 4.381 0 01-4.382-4.381v-8.972a4.381 4.381 0 014.382-4.382h8.972a4.381 4.381 0 014.381 4.382v8.972z" fill="#fff"></path><path d="M19.878 14.162c-3.171 0-5.737 2.587-5.737 5.738 0 3.15 2.587 5.738 5.737 5.738 3.151 0 5.738-2.588 5.738-5.738 0-3.15-2.566-5.738-5.738-5.738zm0 9.264a3.5 3.5 0 01-3.505-3.505 3.5 3.5 0 013.505-3.505 3.5 3.5 0 013.506 3.505c.02 1.92-1.565 3.505-3.506 3.505zM25.638 15.58a1.377 1.377 0 100-2.753 1.377 1.377 0 000 2.754z" fill="#fff"></path></svg>