<svg xmlns="http://www.w3.org/2000/svg" width="64" height="64" fill="none" viewBox="0 0 64 64">
    <path stroke="#000" stroke-linejoin="round" stroke-miterlimit="10" d="M22.168 46.332c-2.89-2.89-2.89-7.572 0-10.432l8.232-8.232c2.891-2.89 7.573-2.89 10.432 0 2.89 2.89 2.89 7.572 0 10.432L32.6 46.332c-2.86 2.89-7.541 2.89-10.432 0z"/>
    <path stroke="#000" stroke-linejoin="round" stroke-miterlimit="10" d="M34.862 33.763c-.377-.377-.377-.974 0-1.35l1.54-1.54c.377-.377.974-.377 1.351 0s.377.974 0 1.35l-1.54 1.54c-.377.346-.974.346-1.35 0zM37.753 30.873l3.142-3.142"/>
</svg>
