<svg xmlns="http://www.w3.org/2000/svg" width="64" height="64" fill="none" viewBox="0 0 64 64">
    <path fill="#000" d="M50 23c.6 0 1 .4 1 1v8h-2v10h2v5c0 .6-.4 1-1 1H15v-6h-2v-2h2v-3h-2v-8h2v-5h-2v-1h8v1h13v-1h16zm0-1H33v1H22v-1H12v3h2v3h-2v10h2v1h-2v4h2v6h36c1.1 0 2-.9 2-2v-6h-2v-8h2v-9c0-1.1-.9-2-2-2z"/>
    <path fill="#000" d="M29.7 33.7H18.1c-.4 0-.8-.3-.8-.8v-.1c0-.4.3-.8.8-.8h11.6v1.7zM29.7 37.9H18.1c-.4 0-.8-.3-.8-.8V37c0-.4.3-.8.8-.8h11.6v1.7zM29.7 42.5H18.1c-.4 0-.8-.3-.8-.8v-.1c0-.4.3-.8.8-.8h11.6v1.7zM40.6 27c2.7 0 4.9 2.2 4.9 4.9s-2.2 4.9-4.9 4.9-4.9-2.2-4.9-4.9 2.2-4.9 4.9-4.9zm0-1c-3.2 0-5.9 2.6-5.9 5.9 0 3.2 2.6 5.9 5.9 5.9 3.2 0 5.9-2.6 5.9-5.9 0-3.2-2.6-5.9-5.9-5.9z"/>
    <path fill="#000" d="M40.6 31.1c.4 0 .8.4.8.8s-.4.8-.8.8-.8-.4-.8-.8.4-.8.8-.8zm0-.5c-.7 0-1.3.6-1.3 1.3 0 .7.6 1.3 1.3 1.3.7 0 1.3-.6 1.3-1.3 0-.7-.6-1.3-1.3-1.3z"/>
    <path fill="#000" d="M41.1 30.8v-4.2s-.9 0-1.7.2c-.8.2-1 .3-1.8.7.7.5 2 2 2.7 3.4l.8-.1zM39.5 31.4h-4.2s0 .9.2 1.7c.2.8.3 1 .7 1.8.5-.7 2-2 3.4-2.7l-.1-.8zM40.1 33v4.2s.9 0 1.7-.2c.8-.2 1-.3 1.8-.7-.7-.5-2-2-2.7-3.4l-.8.1zM41.8 32.4H46s0-.9-.2-1.7c-.3-.8-.3-1-.7-1.8-.5.7-2 2-3.4 2.7l.1.8z"/>
</svg>
