<svg width="40" height="40" viewBox="0 0 40 40" fill="none" xmlns="http://www.w3.org/2000/svg" svg-inline="" role="presentation" focusable="false" tabindex="-1" class="Footer__communityListIcon__1zeIE"><circle cx="20" cy="20" r="20" fill="#818181"></circle><g clip-path="url(#clip0_54_16557)"><path d="M30.54 14.67a2.765 2.765 0 00-1.945-1.957C26.875 12.25 20 12.25 20 12.25s-6.875 0-8.595.463A2.765 2.765 0 009.46 14.67C9 16.398 9 20 9 20s0 3.602.46 5.33a2.765 2.765 0 001.945 1.958c1.72.462 8.595.462 8.595.462s6.875 0 8.595-.462a2.765 2.765 0 001.945-1.958C31 23.603 31 20 31 20s0-3.602-.46-5.33zm-12.79 8.601V16.73L23.5 20l-5.75 3.271z" fill="#fff"></path></g><defs><clipPath id="clip0_54_16557"><path fill="#fff" transform="translate(9 12.25)" d="M0 0h22v15.5H0z"></path></clipPath></defs></svg>