<svg width="40" height="40" viewBox="0 0 40 40" fill="none" xmlns="http://www.w3.org/2000/svg" svg-inline="" role="presentation" focusable="false" tabindex="-1" class="Footer__communityListIcon__1zeIE"><circle cx="20" cy="20" r="20" fill="#818181"></circle><path d="M19.278 9.077c-4.058.427-8.102 3.519-8.27 7.936-.104 2.697.709 4.72 3.434 5.288 1.183-1.965-.381-2.398-.624-3.82-1-5.825 7.134-9.797 11.39-5.73 2.945 2.816 1.006 11.48-3.744 10.579-4.55-.86 2.227-7.757-1.404-9.11-2.952-1.101-4.52 3.365-3.121 5.584-.82 3.815-2.587 7.41-1.872 12.196 2.32-1.585 3.102-4.621 3.744-7.788 1.166.667 1.788 1.361 3.276 1.469 5.486.4 8.55-5.158 7.801-10.285-.665-4.545-5.481-6.858-10.61-6.32z" fill="#fff"></path></svg>