<svg width="40" height="40" viewBox="0 0 40 40" fill="none" xmlns="http://www.w3.org/2000/svg" svg-inline="" role="presentation" focusable="false" tabindex="-1" class="Footer__communityListIcon__1zeIE"><circle cx="20" cy="20" r="20" fill="#818181"></circle><path d="M15.297 29h-3.92V16.333h3.92V29zm-1.978-14.325A2.328 2.328 0 0111 12.338 2.328 2.328 0 0113.319 10a2.328 2.328 0 012.318 2.338 2.328 2.328 0 01-2.318 2.337zM29.99 29H26.09v-6.649c0-1.824-.692-2.84-2.135-2.84-1.568 0-2.39 1.06-2.39 2.84V29h-3.76V16.333h3.76v1.706s1.132-2.093 3.817-2.093c2.686 0 4.61 1.64 4.61 5.033V29z" fill="#fff"></path></svg>