<svg width="16" height="16" viewBox="0 0 16 16" fill="none" xmlns="http://www.w3.org/2000/svg" svg-inline="" role="presentation" focusable="false" tabindex="-1"><g clip-path="url(#clip0_886_8753)" stroke="#4D4D4D" stroke-miterlimit="10" stroke-linecap="round" stroke-linejoin="round"><path d="M3 3.5c1.5 1.5 3 2 5 2s3.5-.5 5-2M13 12.5c-1.5-1.5-3-2-5-2s-3.5.5-5 2"></path><path d="M8 15A7 7 0 108 1a7 7 0 000 14zM8 15V1M1 8h14"></path><path d="M7.987 1.015S4.172 3.089 4.172 7.988s3.815 7 3.815 7M8 1.027S11.815 3.1 11.815 8 8 15 8 15"></path></g><defs><clipPath id="clip0_886_8753"><path fill="#fff" d="M0 0h16v16H0z"></path></clipPath></defs></svg>