<svg xmlns="http://www.w3.org/2000/svg" width="32" height="32" fill="none" viewBox="0 0 32 32">
    <path stroke="#666" stroke-linecap="round" stroke-width="1.5" d="M28.477 12.72c.768 2.852.53 5.883-.675 8.581-1.204 2.699-3.302 4.9-5.939 6.233-2.637 1.333-5.653 1.716-8.54 1.087-2.886-.63-5.468-2.235-7.31-4.545-1.843-2.31-2.833-5.185-2.804-8.14.028-2.954 1.074-5.809 2.96-8.083 1.887-2.274 4.5-3.83 7.398-4.403 2.62-.519 5.33-.207 7.754.88"/>
    <path stroke="#666" stroke-linecap="round" stroke-width="1.5" d="M21.295 1.665l1.342 3.447-3.127 1.114"/>
    <path stroke="#666" stroke-linejoin="round" stroke-width="1.5" d="M8.733 11.998l7.335 3.334V24l-7.335-3.333v-8.669zM16.07 24l7.334-3.334v-8.668l-7.335 3.334V24z"/>
    <path stroke="#666" stroke-linejoin="round" stroke-width="1.5" d="M16.068 15.332l7.335-3.334-7.335-3.334-7.335 3.334 7.335 3.334z"/>
    <path fill="#666" d="M19.885 13.553l.31-.683c.268.122.44.389.44.683h-.75zm.75 2.667c0 .414-.335.75-.75.75-.414 0-.75-.336-.75-.75h1.5zm0-2.667v2.667h-1.5v-2.667h1.5zm-7.557-3.919l7.118 3.236-.621 1.365L12.457 11l.62-1.366z"/>
</svg>
