<svg width="50" height="10" viewBox="0 0 50 10" fill="none" xmlns="http://www.w3.org/2000/svg" svg-inline="" role="presentation" focusable="false" tabindex="-1" class="FooterBreadcrumb__asusLogoWhite__1c4ZT"><path d="M23.837.006h-8.611c-1.997 0-2.882 1.237-3.086 2.417V.006H7.36a1.398 1.398 0 00-.755.142 1.353 1.353 0 00-.556.517L4.74 2.564h19.094l.003-2.558zM0 9.997h3.428l4.298-6.874-3.066-.3L0 9.997zM27.164.008H24.34v2.558h2.823V.008zM45.086 4.005l-8.833-.52c0 1.339.888 2.236 2.4 2.358l6.292.48c.484.04.787.16.787.56 0 .38-.342.519-1.049.519h-8.57V10h8.751c2.763 0 3.973-.96 3.973-3.138 0-1.959-1.09-2.697-3.751-2.857z" fill="#DCDCDC"></path><path d="M36.138 3.485l-2.784-.16v2.938c0 .919-.463 1.199-2.077 1.199H29.06c-1.331 0-1.896-.38-1.896-1.2V3.046l-2.823-.2v3.657h-.06c-.162-1.059-.565-2.298-3.247-2.478l-8.833-.58c0 1.34.967 2.139 2.48 2.299l6.15.618c.485.04.848.18.848.58 0 .44-.363.48-.928.48H12.1V3.423l-2.823-.18V10h11.495c2.561 0 3.388-1.319 3.51-2.418h.06C24.665 9.321 26.197 10 28.799 10h2.864c3.045 0 4.477-.92 4.477-3.078l-.002-3.437zM48.641 2.566V.006h-9.478c-1.973 0-2.863 1.21-3.02 2.379 0 .013-.003.026-.005.04V.005h-2.784v2.559H48.64l.001.002z" fill="#DCDCDC"></path></svg>