<svg xmlns="http://www.w3.org/2000/svg" width="32" height="32" fill="none" viewBox="0 0 32 32">
    <path stroke="#666" stroke-linecap="round" stroke-miterlimit="10" stroke-width="2" d="M29.5 9.75H2h28"/>
    <path fill="#666" fill-rule="evenodd" d="M3.5 5C1.981 5 .75 6.231.75 7.75v15c0 1.519 1.231 2.75 2.75 2.75h12.974l-.128-1.5H3.5c-.69 0-1.25-.56-1.25-1.25v-15c0-.69.56-1.25 1.25-1.25h25c.69 0 1.25.56 1.25 1.25v6.844l1.45.72.05.01V7.75C31.25 6.231 30.019 5 28.5 5h-25z" clip-rule="evenodd"/>
    <path fill="#666" d="M28.587 25.187l.447.602.011-.008.01-.009-.468-.585zm-4.258 3.166l.372.65.04-.021.036-.027-.448-.602zm-.8 0l-.44.607.032.024.036.02.372-.651zm-4.367-3.166l.44-.608-.026-.019-.028-.016-.386.643zm-.328-.546l-.747.064.003.03.004.03.74-.124zm-.582-6.805l.747-.064v-.01l-.747.074zm.582-.8l.147.735.098-.02.089-.044-.334-.672zm4.913-2.439v-.75c-.116 0-.23.027-.334.078l.334.672zm.255 0l.333-.672c-.104-.051-.218-.078-.333-.078v.75zm4.912 2.438l-.333.672.089.044.097.02.147-.736zm.583.8l.747.069-.747-.068zm-.62 6.806l-.746-.068-.009.096.016.095.74-.123zm-.738-.056l-4.257 3.166.895 1.203 4.257-3.165-.895-1.204zM23.957 27.7l-.02.01h-.015c-.004-.001-.011-.004-.021-.01l-.744 1.303c.485.277 1.059.277 1.544 0l-.744-1.303zm.012.044l-4.367-3.166-.88 1.215 4.366 3.166.88-1.215zm-4.421-3.201c.02.012.034.025.04.032l.007.007-.01-.024c-.005-.012-.009-.026-.011-.041l-1.48.246c.057.343.244.803.682 1.066l.772-1.286zm.034.033l-.583-6.805-1.494.128.582 6.805 1.494-.128zm-.584-6.816v.01l.004-.007c.002-.003.003-.003 0-.002-.002.003-.01.006-.02.009l-.295-1.471c-.76.152-1.254.881-1.181 1.61l1.492-.149zm.17-.054l4.912-2.438-.666-1.344-4.913 2.438.667 1.344zm4.579-2.36H24.002v-1.5h-.002-.001-.001-.002-.001-.003-.001-.001-.002-.001-.001-.001-.002-.001-.001-.001-.001-.003-.001-.001-.001-.001-.001-.001-.006-.001-.001-.001-.001-.001-.001-.001-.001-.001-.001-.001-.001-.001-.001-.001-.001-.001-.001-.001-.001-.001-.001-.001-.001-.001-.001-.001-.001-.001-.006-.001-.001-.001-.001-.001-.001-.001-.001-.005-.001-.001-.001-.001-.001-.001-.004-.001-.001-.001-.001-.001-.004-.001-.001-.001-.001-.001-.005-.001-.001-.001-.005-.001-.001-.001-.004-.001-.001-.001-.001-.004-.001-.001-.001-.001-.001-.005-.001-.001-.001-.001-.005-.001-.001-.001-.001-.006-.001-.001-.001-.001-.001-.001-.005-.001-.001-.001-.001-.001-.001-.001-.001-.001-.001-.001-.001H23.791h-.001-.001-.001-.001-.001-.001-.001-.001-.001-.001-.005-.001-.001-.001-.001-.003-.001-.001-.001-.003-.001-.001-.003-.001-.003-.001-.002-.001-.002-.001-.001v1.5zm-.079-.078l4.913 2.438.667-1.344-4.913-2.438-.667 1.344zm5.1 2.502l-.006-.003-.009-.008-.004-.007c0-.001.002.003 0 .015l1.495.136c.07-.778-.439-1.455-1.183-1.604l-.294 1.47zm-.018-.003l-.619 6.805 1.494.136.619-6.805-1.494-.136zm-.612 6.996c-.007-.045-.005-.09.004-.132.009-.04.023-.066.03-.077.005-.01.007-.01-.003 0-.01.011-.026.026-.05.046l.936 1.171c.213-.17.672-.599.563-1.254l-1.48.246z"/>
    <path stroke="#666" stroke-linecap="round" stroke-miterlimit="10" stroke-width="1.5" d="M21.5 21.85l1.707 1.9 3.293-4"/>
    <path fill="#666" d="M4.5 17.75H8.5V21.75H4.5z"/>
</svg>
