<svg xmlns="http://www.w3.org/2000/svg" width="32" height="32" fill="none" viewBox="0 0 32 32">
    <path fill="#666" d="M26.028 20.069l-.42-.621-.33.223v.398h.75zm-5.25 1.868l.377-.648-.21-.123-.243.025.075.746zM26.027 25l-.378.648 1.128.658V25h-.75zm3.25-12c0 2.578-1.405 4.915-3.67 6.448l.84 1.242c2.608-1.764 4.33-4.535 4.33-7.69h-1.5zm-9.75-8.25c5.498 0 9.75 3.798 9.75 8.25h1.5c0-5.49-5.15-9.75-11.25-9.75v1.5zM9.778 13c0-4.452 4.253-8.25 9.75-8.25v-1.5c-6.1 0-11.25 4.26-11.25 9.75h1.5zm9.75 8.25c-5.497 0-9.75-3.798-9.75-8.25h-1.5c0 5.49 5.15 9.75 11.25 9.75v-1.5zm1.174-.06c-.385.04-.776.06-1.174.06v1.5c.448 0 .89-.023 1.325-.067l-.151-1.492zm5.704 3.162l-5.25-3.063-.756 1.296 5.25 3.063.756-1.296zm-1.128-4.283V25h1.5v-4.931h-1.5z"/>
    <circle cx="15.028" cy="13" r="1" fill="#666"/>
    <circle cx="20.028" cy="13" r="1" fill="#666"/>
    <circle cx="25.028" cy="13" r="1" fill="#666"/>
    <path fill="#666" fill-rule="evenodd" d="M7.344 10.897C4.227 12.139 2 14.86 2 18.132c0 2.448 1.266 4.608 3.204 6.05v4.868l1.128-.658 4-2.333c.273.021.55.032.829.032 2.446 0 4.712-.846 6.38-2.245-.715-.068-1.408-.193-2.074-.37-1.215.7-2.69 1.115-4.306 1.115-.313 0-.622-.016-.925-.047l-.243-.024-.21.123-3.079 1.795V23.396l-.33-.223C4.594 21.968 3.5 20.14 3.5 18.132c0-2.274 1.43-4.347 3.643-5.502.019-.586.087-1.165.201-1.733z" clip-rule="evenodd"/>
</svg>
