<svg xmlns="http://www.w3.org/2000/svg" width="32" height="32" fill="none" viewBox="0 0 32 32">
    <path stroke="#666" stroke-miterlimit="10" stroke-width="1.5" d="M7.974 28.024c1.289 0 2.333-1.045 2.333-2.333 0-1.289-1.044-2.334-2.333-2.334-1.289 0-2.333 1.045-2.333 2.334 0 1.288 1.044 2.333 2.333 2.333z"/>
    <path stroke="#666" stroke-miterlimit="10" stroke-width="1.5" d="M7.974 28.024c1.289 0 2.333-1.045 2.333-2.333 0-1.289-1.044-2.334-2.333-2.334-1.289 0-2.333 1.045-2.333 2.334 0 1.288 1.044 2.333 2.333 2.333zM22.907 28.024c1.288 0 2.333-1.045 2.333-2.333 0-1.289-1.045-2.334-2.333-2.334-1.29 0-2.334 1.045-2.334 2.334 0 1.288 1.045 2.333 2.334 2.333z"/>
    <path stroke="#666" stroke-miterlimit="10" stroke-width="1.5" d="M22.907 28.024c1.288 0 2.333-1.045 2.333-2.333 0-1.289-1.045-2.334-2.333-2.334-1.29 0-2.334 1.045-2.334 2.334 0 1.288 1.045 2.333 2.334 2.333z"/>
    <path stroke="#666" stroke-linejoin="round" stroke-miterlimit="10" stroke-width="1.5" d="M5.733 26H2V6h23v5.714l5 2.476V26h-4.667M20.667 25.784H10.4"/>
    <path stroke="#666" stroke-linecap="round" stroke-linejoin="round" stroke-miterlimit="10" stroke-width="1.5" d="M7 15h13M16 19l3.93-3.93L16 11"/>
</svg>
